<mxfile host="app.diagrams.net" modified="2021-08-18T21:35:03.575Z" agent="5.0 (Macintosh; Intel Mac OS X 10_15_7) AppleWebKit/537.36 (KHTML, like Gecko) Chrome/92.0.4515.131 Safari/537.36" etag="x_7XmEGcOX9hqnIXiF5V" version="14.9.7" type="github">
  <diagram id="0yHu5yQXhKG4ZOJwX1DQ" name="Page-1">
    <mxGraphModel dx="868" dy="532" grid="1" gridSize="10" guides="1" tooltips="1" connect="1" arrows="1" fold="1" page="1" pageScale="1" pageWidth="850" pageHeight="1100" math="0" shadow="0">
      <root>
        <mxCell id="0" />
        <mxCell id="1" parent="0" />
        <mxCell id="NLLp_T5oQQYWmCSfZZHP-4" value="User" style="swimlane;fontStyle=0;childLayout=stackLayout;horizontal=1;startSize=26;horizontalStack=0;resizeParent=1;resizeParentMax=0;resizeLast=0;collapsible=1;marginBottom=0;" parent="1" vertex="1">
          <mxGeometry x="80" y="265" width="180" height="140" as="geometry" />
        </mxCell>
        <mxCell id="NLLp_T5oQQYWmCSfZZHP-5" value="id" style="text;strokeColor=none;fillColor=none;align=left;verticalAlign=top;spacingLeft=4;spacingRight=4;overflow=hidden;rotatable=0;points=[[0,0.5],[1,0.5]];portConstraint=eastwest;" parent="NLLp_T5oQQYWmCSfZZHP-4" vertex="1">
          <mxGeometry y="26" width="180" height="26" as="geometry" />
        </mxCell>
        <mxCell id="NLLp_T5oQQYWmCSfZZHP-6" value="name" style="text;strokeColor=none;fillColor=none;align=left;verticalAlign=top;spacingLeft=4;spacingRight=4;overflow=hidden;rotatable=0;points=[[0,0.5],[1,0.5]];portConstraint=eastwest;" parent="NLLp_T5oQQYWmCSfZZHP-4" vertex="1">
          <mxGeometry y="52" width="180" height="26" as="geometry" />
        </mxCell>
        <mxCell id="NLLp_T5oQQYWmCSfZZHP-7" value="email" style="text;strokeColor=none;fillColor=none;align=left;verticalAlign=top;spacingLeft=4;spacingRight=4;overflow=hidden;rotatable=0;points=[[0,0.5],[1,0.5]];portConstraint=eastwest;" parent="NLLp_T5oQQYWmCSfZZHP-4" vertex="1">
          <mxGeometry y="78" width="180" height="32" as="geometry" />
        </mxCell>
        <mxCell id="NLLp_T5oQQYWmCSfZZHP-30" value="password" style="text;strokeColor=none;fillColor=none;align=left;verticalAlign=top;spacingLeft=4;spacingRight=4;overflow=hidden;rotatable=0;points=[[0,0.5],[1,0.5]];portConstraint=eastwest;" parent="NLLp_T5oQQYWmCSfZZHP-4" vertex="1">
          <mxGeometry y="110" width="180" height="30" as="geometry" />
        </mxCell>
        <mxCell id="NLLp_T5oQQYWmCSfZZHP-9" value="Cart" style="swimlane;fontStyle=0;childLayout=stackLayout;horizontal=1;startSize=26;horizontalStack=0;resizeParent=1;resizeParentMax=0;resizeLast=0;collapsible=1;marginBottom=0;" parent="1" vertex="1">
          <mxGeometry x="600" y="265" width="180" height="104" as="geometry" />
        </mxCell>
        <mxCell id="NLLp_T5oQQYWmCSfZZHP-10" value="id" style="text;strokeColor=none;fillColor=none;align=left;verticalAlign=top;spacingLeft=4;spacingRight=4;overflow=hidden;rotatable=0;points=[[0,0.5],[1,0.5]];portConstraint=eastwest;" parent="NLLp_T5oQQYWmCSfZZHP-9" vertex="1">
          <mxGeometry y="26" width="180" height="26" as="geometry" />
        </mxCell>
        <mxCell id="NLLp_T5oQQYWmCSfZZHP-12" value="cart_status" style="text;strokeColor=none;fillColor=none;align=left;verticalAlign=top;spacingLeft=4;spacingRight=4;overflow=hidden;rotatable=0;points=[[0,0.5],[1,0.5]];portConstraint=eastwest;" parent="NLLp_T5oQQYWmCSfZZHP-9" vertex="1">
          <mxGeometry y="52" width="180" height="26" as="geometry" />
        </mxCell>
        <mxCell id="NLLp_T5oQQYWmCSfZZHP-57" value="total_purchase" style="text;strokeColor=none;fillColor=none;align=left;verticalAlign=top;spacingLeft=4;spacingRight=4;overflow=hidden;rotatable=0;points=[[0,0.5],[1,0.5]];portConstraint=eastwest;" parent="NLLp_T5oQQYWmCSfZZHP-9" vertex="1">
          <mxGeometry y="78" width="180" height="26" as="geometry" />
        </mxCell>
        <mxCell id="NLLp_T5oQQYWmCSfZZHP-56" style="edgeStyle=orthogonalEdgeStyle;rounded=0;orthogonalLoop=1;jettySize=auto;html=1;exitX=0.5;exitY=0;exitDx=0;exitDy=0;entryX=0.494;entryY=0.992;entryDx=0;entryDy=0;entryPerimeter=0;" parent="1" source="NLLp_T5oQQYWmCSfZZHP-13" target="NLLp_T5oQQYWmCSfZZHP-39" edge="1">
          <mxGeometry relative="1" as="geometry" />
        </mxCell>
        <mxCell id="NLLp_T5oQQYWmCSfZZHP-13" value="Product" style="swimlane;fontStyle=0;childLayout=stackLayout;horizontal=1;startSize=26;horizontalStack=0;resizeParent=1;resizeParentMax=0;resizeLast=0;collapsible=1;marginBottom=0;" parent="1" vertex="1">
          <mxGeometry x="593" y="654" width="180" height="182" as="geometry" />
        </mxCell>
        <mxCell id="NLLp_T5oQQYWmCSfZZHP-14" value="id" style="text;strokeColor=none;fillColor=none;align=left;verticalAlign=top;spacingLeft=4;spacingRight=4;overflow=hidden;rotatable=0;points=[[0,0.5],[1,0.5]];portConstraint=eastwest;" parent="NLLp_T5oQQYWmCSfZZHP-13" vertex="1">
          <mxGeometry y="26" width="180" height="26" as="geometry" />
        </mxCell>
        <mxCell id="NLLp_T5oQQYWmCSfZZHP-15" value="product_name" style="text;strokeColor=none;fillColor=none;align=left;verticalAlign=top;spacingLeft=4;spacingRight=4;overflow=hidden;rotatable=0;points=[[0,0.5],[1,0.5]];portConstraint=eastwest;" parent="NLLp_T5oQQYWmCSfZZHP-13" vertex="1">
          <mxGeometry y="52" width="180" height="26" as="geometry" />
        </mxCell>
        <mxCell id="NLLp_T5oQQYWmCSfZZHP-42" value="description" style="text;strokeColor=none;fillColor=none;align=left;verticalAlign=top;spacingLeft=4;spacingRight=4;overflow=hidden;rotatable=0;points=[[0,0.5],[1,0.5]];portConstraint=eastwest;" parent="NLLp_T5oQQYWmCSfZZHP-13" vertex="1">
          <mxGeometry y="78" width="180" height="26" as="geometry" />
        </mxCell>
        <mxCell id="NLLp_T5oQQYWmCSfZZHP-52" value="price" style="text;strokeColor=none;fillColor=none;align=left;verticalAlign=top;spacingLeft=4;spacingRight=4;overflow=hidden;rotatable=0;points=[[0,0.5],[1,0.5]];portConstraint=eastwest;" parent="NLLp_T5oQQYWmCSfZZHP-13" vertex="1">
          <mxGeometry y="104" width="180" height="26" as="geometry" />
        </mxCell>
        <mxCell id="NLLp_T5oQQYWmCSfZZHP-32" value="img_url" style="text;strokeColor=none;fillColor=none;align=left;verticalAlign=top;spacingLeft=4;spacingRight=4;overflow=hidden;rotatable=0;points=[[0,0.5],[1,0.5]];portConstraint=eastwest;" parent="NLLp_T5oQQYWmCSfZZHP-13" vertex="1">
          <mxGeometry y="130" width="180" height="26" as="geometry" />
        </mxCell>
        <mxCell id="NLLp_T5oQQYWmCSfZZHP-16" value="3D_img_url" style="text;strokeColor=none;fillColor=none;align=left;verticalAlign=top;spacingLeft=4;spacingRight=4;overflow=hidden;rotatable=0;points=[[0,0.5],[1,0.5]];portConstraint=eastwest;" parent="NLLp_T5oQQYWmCSfZZHP-13" vertex="1">
          <mxGeometry y="156" width="180" height="26" as="geometry" />
        </mxCell>
        <mxCell id="NLLp_T5oQQYWmCSfZZHP-17" value="Restaurant" style="swimlane;fontStyle=0;childLayout=stackLayout;horizontal=1;startSize=26;horizontalStack=0;resizeParent=1;resizeParentMax=0;resizeLast=0;collapsible=1;marginBottom=0;" parent="1" vertex="1">
          <mxGeometry x="80" y="555" width="180" height="130" as="geometry" />
        </mxCell>
        <mxCell id="NLLp_T5oQQYWmCSfZZHP-18" value="id" style="text;strokeColor=none;fillColor=none;align=left;verticalAlign=top;spacingLeft=4;spacingRight=4;overflow=hidden;rotatable=0;points=[[0,0.5],[1,0.5]];portConstraint=eastwest;" parent="NLLp_T5oQQYWmCSfZZHP-17" vertex="1">
          <mxGeometry y="26" width="180" height="26" as="geometry" />
        </mxCell>
        <mxCell id="NLLp_T5oQQYWmCSfZZHP-19" value="name" style="text;strokeColor=none;fillColor=none;align=left;verticalAlign=top;spacingLeft=4;spacingRight=4;overflow=hidden;rotatable=0;points=[[0,0.5],[1,0.5]];portConstraint=eastwest;" parent="NLLp_T5oQQYWmCSfZZHP-17" vertex="1">
          <mxGeometry y="52" width="180" height="26" as="geometry" />
        </mxCell>
        <mxCell id="NLLp_T5oQQYWmCSfZZHP-20" value="QR_img" style="text;strokeColor=none;fillColor=none;align=left;verticalAlign=top;spacingLeft=4;spacingRight=4;overflow=hidden;rotatable=0;points=[[0,0.5],[1,0.5]];portConstraint=eastwest;" parent="NLLp_T5oQQYWmCSfZZHP-17" vertex="1">
          <mxGeometry y="78" width="180" height="26" as="geometry" />
        </mxCell>
        <mxCell id="NLLp_T5oQQYWmCSfZZHP-53" value="order_history" style="text;strokeColor=none;fillColor=none;align=left;verticalAlign=top;spacingLeft=4;spacingRight=4;overflow=hidden;rotatable=0;points=[[0,0.5],[1,0.5]];portConstraint=eastwest;" parent="NLLp_T5oQQYWmCSfZZHP-17" vertex="1">
          <mxGeometry y="104" width="180" height="26" as="geometry" />
        </mxCell>
        <mxCell id="NLLp_T5oQQYWmCSfZZHP-34" style="edgeStyle=orthogonalEdgeStyle;rounded=0;orthogonalLoop=1;jettySize=auto;html=1;exitX=1;exitY=0.5;exitDx=0;exitDy=0;entryX=0;entryY=0.5;entryDx=0;entryDy=0;" parent="1" source="NLLp_T5oQQYWmCSfZZHP-7" target="NLLp_T5oQQYWmCSfZZHP-10" edge="1">
          <mxGeometry relative="1" as="geometry">
            <mxPoint x="510" y="304" as="targetPoint" />
            <Array as="points">
              <mxPoint x="260" y="304" />
            </Array>
          </mxGeometry>
        </mxCell>
        <mxCell id="NLLp_T5oQQYWmCSfZZHP-58" style="edgeStyle=orthogonalEdgeStyle;rounded=0;orthogonalLoop=1;jettySize=auto;html=1;entryX=0.47;entryY=1.018;entryDx=0;entryDy=0;entryPerimeter=0;" parent="1" source="NLLp_T5oQQYWmCSfZZHP-36" target="NLLp_T5oQQYWmCSfZZHP-57" edge="1">
          <mxGeometry relative="1" as="geometry" />
        </mxCell>
        <mxCell id="NLLp_T5oQQYWmCSfZZHP-36" value="Cart Items" style="swimlane;fontStyle=0;childLayout=stackLayout;horizontal=1;startSize=26;horizontalStack=0;resizeParent=1;resizeParentMax=0;resizeLast=0;collapsible=1;marginBottom=0;" parent="1" vertex="1">
          <mxGeometry x="599" y="455" width="170" height="104" as="geometry" />
        </mxCell>
        <mxCell id="NLLp_T5oQQYWmCSfZZHP-37" value="id" style="text;strokeColor=none;fillColor=none;align=left;verticalAlign=top;spacingLeft=4;spacingRight=4;overflow=hidden;rotatable=0;points=[[0,0.5],[1,0.5]];portConstraint=eastwest;" parent="NLLp_T5oQQYWmCSfZZHP-36" vertex="1">
          <mxGeometry y="26" width="170" height="26" as="geometry" />
        </mxCell>
        <mxCell id="NLLp_T5oQQYWmCSfZZHP-38" value="quantity" style="text;strokeColor=none;fillColor=none;align=left;verticalAlign=top;spacingLeft=4;spacingRight=4;overflow=hidden;rotatable=0;points=[[0,0.5],[1,0.5]];portConstraint=eastwest;" parent="NLLp_T5oQQYWmCSfZZHP-36" vertex="1">
          <mxGeometry y="52" width="170" height="26" as="geometry" />
        </mxCell>
        <mxCell id="NLLp_T5oQQYWmCSfZZHP-39" value="price" style="text;strokeColor=none;fillColor=none;align=left;verticalAlign=top;spacingLeft=4;spacingRight=4;overflow=hidden;rotatable=0;points=[[0,0.5],[1,0.5]];portConstraint=eastwest;" parent="NLLp_T5oQQYWmCSfZZHP-36" vertex="1">
          <mxGeometry y="78" width="170" height="26" as="geometry" />
        </mxCell>
        <mxCell id="NLLp_T5oQQYWmCSfZZHP-40" style="edgeStyle=orthogonalEdgeStyle;rounded=0;orthogonalLoop=1;jettySize=auto;html=1;exitX=1;exitY=0.5;exitDx=0;exitDy=0;entryX=0;entryY=-0.09;entryDx=0;entryDy=0;entryPerimeter=0;" parent="1" source="NLLp_T5oQQYWmCSfZZHP-19" target="NLLp_T5oQQYWmCSfZZHP-32" edge="1">
          <mxGeometry relative="1" as="geometry" />
        </mxCell>
        <mxCell id="NLLp_T5oQQYWmCSfZZHP-54" style="edgeStyle=orthogonalEdgeStyle;rounded=0;orthogonalLoop=1;jettySize=auto;html=1;exitX=1;exitY=0.5;exitDx=0;exitDy=0;entryX=0;entryY=0.5;entryDx=0;entryDy=0;" parent="1" source="NLLp_T5oQQYWmCSfZZHP-18" target="NLLp_T5oQQYWmCSfZZHP-12" edge="1">
          <mxGeometry relative="1" as="geometry" />
        </mxCell>
        <mxCell id="NLLp_T5oQQYWmCSfZZHP-59" value="One to Many" style="text;html=1;strokeColor=none;fillColor=none;align=center;verticalAlign=middle;whiteSpace=wrap;rounded=0;" parent="1" vertex="1">
          <mxGeometry x="320" y="445" width="105" height="20" as="geometry" />
        </mxCell>
        <mxCell id="NLLp_T5oQQYWmCSfZZHP-60" value="One to Many" style="text;html=1;strokeColor=none;fillColor=none;align=center;verticalAlign=middle;whiteSpace=wrap;rounded=0;" parent="1" vertex="1">
          <mxGeometry x="373" y="265" width="105" height="20" as="geometry" />
        </mxCell>
        <mxCell id="NLLp_T5oQQYWmCSfZZHP-61" value="Many to Many" style="text;html=1;strokeColor=none;fillColor=none;align=center;verticalAlign=middle;whiteSpace=wrap;rounded=0;" parent="1" vertex="1">
          <mxGeometry x="570" y="405" width="105" height="20" as="geometry" />
        </mxCell>
        <mxCell id="NLLp_T5oQQYWmCSfZZHP-62" value="Many to Many" style="text;html=1;strokeColor=none;fillColor=none;align=center;verticalAlign=middle;whiteSpace=wrap;rounded=0;" parent="1" vertex="1">
          <mxGeometry x="570" y="605" width="105" height="20" as="geometry" />
        </mxCell>
        <mxCell id="NLLp_T5oQQYWmCSfZZHP-63" value="One to Many" style="text;html=1;strokeColor=none;fillColor=none;align=center;verticalAlign=middle;whiteSpace=wrap;rounded=0;" parent="1" vertex="1">
          <mxGeometry x="320" y="665" width="105" height="20" as="geometry" />
        </mxCell>
        <mxCell id="NLLp_T5oQQYWmCSfZZHP-69" value="&lt;font style=&quot;font-size: 40px&quot;&gt;Ocra DB Schema&lt;/font&gt;" style="text;html=1;strokeColor=none;fillColor=none;align=center;verticalAlign=middle;whiteSpace=wrap;rounded=0;" parent="1" vertex="1">
          <mxGeometry x="215" y="90" width="420" height="70" as="geometry" />
        </mxCell>
      </root>
    </mxGraphModel>
  </diagram>
</mxfile>
